# xmcd
#
# Track frame offsets: 
#        150
#        20425
#        31900
#        55650
#        73525
#        93150
#        112725
#        132850
#        148550
#        164900
#        184700
#        202000
#        216675
#        226725
#        258200
#        278900
#
# Disc length: 4131 seconds
#
# Revision: 0
# Processed by: cddbd v1.5.2PL0 Copyright (c) Steve Scherf et al.
# Submitted via: ExactAudioCopyFreeDBPlugin 1.0
#
DISCID=e3102110
DTITLE=群星 - 2014广州国际高级音响展HI-FI珍藏版CD
DYEAR=2014
DGENRE=Acoustic
TTITLE0="春之祭"舞曲 -----选自:天乐唱片国际有限公司TM-SACD9015.2<柏林之声:詹姆斯-令人难以置信的高保真音效的
TTITLE0=选择>
TTITLE1=序:(1)啊,命运 ------选自:北京达人艺典文化传播有限公司DRMA-CCC-1111-BSCD<卡尔.奥尔夫:布兰诗
TTITLE1=歌>
TTITLE2=桃花谣 ------选自:妙音文化传播有限公司DSD-0218<爱的月光.童丽>
TTITLE3=假面舞会的炫耀 ------选自:天乐唱片国际有限公司TM-SACD9016.2<伦敦提琴经典>
TTITLE4=天下秦风 ------选自:天弦文化传播有限公司CSCCD-2760<大秦帝国>
TTITLE5=禅 ------选自:广东龙源音像有限公司HQ-017张宏光原创音乐作品集:<水月空禅心.笛簘.戴亚>
TTITLE6=我将永远爱你 ------选自:妙音文化传播有限公司DSD-0216<夜曲.金池>
TTITLE7=特鲁德 ------选自:天乐唱片国际有限公司TM-UQCD1079<口琴专辑.米奇.拉裴尔>
TTITLE8=卷耳------ 选自:北京达人艺典文化传播有限公司DRAM-CCC-0301 ULTRACD<诗经>
TTITLE9=被遗忘的时光------ 选自:广东东昇影视文化传播有限公司 DS-888-172<像梦一样自由.康康>
TTITLE10=时间都去哪儿了 ------选自:广东东昇影视文化传播有限公司DS 888-173<存在.II.雷婷>
TTITLE11=G大调"鳟鱼"------ 选自:天乐唱片国际有限公司TM-UQCD1078<竖琴之声精选集II.西尔克.艾克霍恩>
TTITLE12=我亲爱的爸爸 ------选自:广州市风林文化传播有限公司 FLHQCD-051<二十三岁的詠叹调.李黎>
TTITLE13=疾风 ------选自:北京瑞鸣东方文化传播有限公司RMCD-G034<天人合一.II.禅.意>
TTITLE14=二泉吟 ------选自:天艺文化传播有限公司ISBN 978-7-8859-090-4<追.玥-龚玥>
TTITLE15=保卫黄河 ------选自：环球唱片有限公司UNIVERSAL GE 1024 C <协奏曲。薛啸秋>
EXTD=
EXTT0=
EXTT1=
EXTT2=
EXTT3=
EXTT4=
EXTT5=
EXTT6=
EXTT7=
EXTT8=
EXTT9=
EXTT10=
EXTT11=
EXTT12=
EXTT13=
EXTT14=
EXTT15=
PLAYORDER=
